<svg xmlns="http://www.w3.org/2000/svg" viewBox="0 0 150 150"><path d="M26.4 130.3 22.3 22.1c-.1-3.6 2.6-6.6 6.2-6.8l92.1-5.8c3.6-.2 6.8 2.5 7 6.2v118.4c0 3.6-3 6.6-6.6 6.6h-.3l-88-4c-3.4-.2-6.2-2.9-6.3-6.3Z" style="fill:#ef4a85"/><path d="m113.4 9.9-12.7.8-.6 14.9c0 .2 0 .5.2.6.3.4.9.5 1.4.2l5.8-4.4 4.9 3.8c.2.1.4.2.6.2.5 0 1-.5.9-1zm-9.9 49.8c-2.3 1.8-19.6 3-19.6.5.4-9.8-4-10.2-6.5-10.2s-6.2.7-6.2 5.9 5.7 8.4 12.4 11.9c9.5 5 21 11.1 21 26.4S92.7 117 77.5 117s-29.4-6.4-27.9-28.4c.6-2.6 20.6-2 20.6 0-.2 9.1 1.8 11.8 7.1 11.8s5.8-2.2 5.8-5.9c0-5.6-5.9-9-12.8-12.8-9.2-5.2-20.1-11.3-20.1-25.3S59.8 33.1 77 33.1s26.5 9.2 26.5 26.6" style="fill:#fff;fill-rule:evenodd"/></svg>